<mxfile host="app.diagrams.net" modified="2023-10-16T03:18:18.931Z" agent="Mozilla/5.0 (Windows NT 10.0; Win64; x64) AppleWebKit/537.36 (KHTML, like Gecko) Chrome/117.0.0.0 Safari/537.36" etag="noDOf1LqbK2eibChw09r" version="22.0.4" type="github">
  <diagram name="Page-1" id="3yrqUJJnwWPftYqSbitU">
    <mxGraphModel dx="1035" dy="1662" grid="1" gridSize="10" guides="1" tooltips="1" connect="1" arrows="1" fold="1" page="1" pageScale="1" pageWidth="850" pageHeight="1100" math="0" shadow="0">
      <root>
        <mxCell id="0" />
        <mxCell id="1" parent="0" />
        <mxCell id="_KhrixYi-4tVYZZCShak-1" value="BERANDA" style="rhombus;whiteSpace=wrap;html=1;" vertex="1" parent="1">
          <mxGeometry x="375" y="250" width="100" height="80" as="geometry" />
        </mxCell>
        <mxCell id="_KhrixYi-4tVYZZCShak-2" value="Bahasa Pemrograman" style="rounded=0;whiteSpace=wrap;html=1;" vertex="1" parent="1">
          <mxGeometry x="90" y="265" width="90" height="50" as="geometry" />
        </mxCell>
        <mxCell id="_KhrixYi-4tVYZZCShak-3" value="" style="endArrow=none;dashed=1;html=1;dashPattern=1 3;strokeWidth=2;rounded=0;exitX=1;exitY=0.5;exitDx=0;exitDy=0;entryX=0;entryY=0.5;entryDx=0;entryDy=0;" edge="1" parent="1" source="_KhrixYi-4tVYZZCShak-2" target="_KhrixYi-4tVYZZCShak-1">
          <mxGeometry width="50" height="50" relative="1" as="geometry">
            <mxPoint x="370" y="170" as="sourcePoint" />
            <mxPoint x="420" y="120" as="targetPoint" />
          </mxGeometry>
        </mxCell>
        <mxCell id="_KhrixYi-4tVYZZCShak-5" value="Java" style="ellipse;whiteSpace=wrap;html=1;" vertex="1" parent="1">
          <mxGeometry x="10" y="150" width="70" height="40" as="geometry" />
        </mxCell>
        <mxCell id="_KhrixYi-4tVYZZCShak-6" value="Python" style="ellipse;whiteSpace=wrap;html=1;" vertex="1" parent="1">
          <mxGeometry x="100" y="150" width="70" height="40" as="geometry" />
        </mxCell>
        <mxCell id="_KhrixYi-4tVYZZCShak-8" value="Java Script" style="ellipse;whiteSpace=wrap;html=1;" vertex="1" parent="1">
          <mxGeometry x="190" y="150" width="70" height="40" as="geometry" />
        </mxCell>
        <mxCell id="_KhrixYi-4tVYZZCShak-9" value="" style="endArrow=none;dashed=1;html=1;dashPattern=1 3;strokeWidth=2;rounded=0;exitX=0.5;exitY=1;exitDx=0;exitDy=0;entryX=0.25;entryY=0;entryDx=0;entryDy=0;" edge="1" parent="1" source="_KhrixYi-4tVYZZCShak-5" target="_KhrixYi-4tVYZZCShak-2">
          <mxGeometry width="50" height="50" relative="1" as="geometry">
            <mxPoint x="370" y="170" as="sourcePoint" />
            <mxPoint x="130" y="260" as="targetPoint" />
          </mxGeometry>
        </mxCell>
        <mxCell id="_KhrixYi-4tVYZZCShak-11" value="" style="endArrow=none;dashed=1;html=1;dashPattern=1 3;strokeWidth=2;rounded=0;exitX=0.5;exitY=1;exitDx=0;exitDy=0;entryX=0.5;entryY=0;entryDx=0;entryDy=0;" edge="1" parent="1" source="_KhrixYi-4tVYZZCShak-6" target="_KhrixYi-4tVYZZCShak-2">
          <mxGeometry width="50" height="50" relative="1" as="geometry">
            <mxPoint x="370" y="170" as="sourcePoint" />
            <mxPoint x="135" y="260" as="targetPoint" />
          </mxGeometry>
        </mxCell>
        <mxCell id="_KhrixYi-4tVYZZCShak-12" value="" style="endArrow=none;dashed=1;html=1;dashPattern=1 3;strokeWidth=2;rounded=0;entryX=0.75;entryY=0;entryDx=0;entryDy=0;" edge="1" parent="1" source="_KhrixYi-4tVYZZCShak-8" target="_KhrixYi-4tVYZZCShak-2">
          <mxGeometry width="50" height="50" relative="1" as="geometry">
            <mxPoint x="370" y="170" as="sourcePoint" />
            <mxPoint x="130" y="260" as="targetPoint" />
          </mxGeometry>
        </mxCell>
        <mxCell id="_KhrixYi-4tVYZZCShak-13" value="&lt;font style=&quot;font-size: 12px;&quot;&gt;LINUX&lt;/font&gt;" style="rounded=0;whiteSpace=wrap;html=1;" vertex="1" parent="1">
          <mxGeometry x="670" y="265" width="90" height="50" as="geometry" />
        </mxCell>
        <mxCell id="_KhrixYi-4tVYZZCShak-14" value="" style="endArrow=none;dashed=1;html=1;dashPattern=1 3;strokeWidth=2;rounded=0;exitX=1;exitY=0.5;exitDx=0;exitDy=0;entryX=0;entryY=0.5;entryDx=0;entryDy=0;" edge="1" parent="1">
          <mxGeometry width="50" height="50" relative="1" as="geometry">
            <mxPoint x="475" y="289.41" as="sourcePoint" />
            <mxPoint x="670" y="289.41" as="targetPoint" />
          </mxGeometry>
        </mxCell>
        <mxCell id="_KhrixYi-4tVYZZCShak-15" value="Debian" style="ellipse;whiteSpace=wrap;html=1;" vertex="1" parent="1">
          <mxGeometry x="670" y="150" width="70" height="40" as="geometry" />
        </mxCell>
        <mxCell id="_KhrixYi-4tVYZZCShak-17" value="Ubuntu" style="ellipse;whiteSpace=wrap;html=1;" vertex="1" parent="1">
          <mxGeometry x="570" y="150" width="70" height="40" as="geometry" />
        </mxCell>
        <mxCell id="_KhrixYi-4tVYZZCShak-18" value="CentOS" style="ellipse;whiteSpace=wrap;html=1;" vertex="1" parent="1">
          <mxGeometry x="770" y="150" width="70" height="40" as="geometry" />
        </mxCell>
        <mxCell id="_KhrixYi-4tVYZZCShak-20" value="" style="endArrow=none;dashed=1;html=1;dashPattern=1 3;strokeWidth=2;rounded=0;entryX=0.5;entryY=1;entryDx=0;entryDy=0;" edge="1" parent="1" source="_KhrixYi-4tVYZZCShak-13" target="_KhrixYi-4tVYZZCShak-15">
          <mxGeometry width="50" height="50" relative="1" as="geometry">
            <mxPoint x="480" y="400" as="sourcePoint" />
            <mxPoint x="530" y="350" as="targetPoint" />
          </mxGeometry>
        </mxCell>
        <mxCell id="_KhrixYi-4tVYZZCShak-21" value="" style="endArrow=none;dashed=1;html=1;dashPattern=1 3;strokeWidth=2;rounded=0;" edge="1" parent="1" source="_KhrixYi-4tVYZZCShak-13" target="_KhrixYi-4tVYZZCShak-17">
          <mxGeometry width="50" height="50" relative="1" as="geometry">
            <mxPoint x="480" y="400" as="sourcePoint" />
            <mxPoint x="530" y="350" as="targetPoint" />
          </mxGeometry>
        </mxCell>
        <mxCell id="_KhrixYi-4tVYZZCShak-22" value="" style="endArrow=none;dashed=1;html=1;dashPattern=1 3;strokeWidth=2;rounded=0;entryX=0.366;entryY=1.024;entryDx=0;entryDy=0;entryPerimeter=0;" edge="1" parent="1" source="_KhrixYi-4tVYZZCShak-13" target="_KhrixYi-4tVYZZCShak-18">
          <mxGeometry width="50" height="50" relative="1" as="geometry">
            <mxPoint x="480" y="400" as="sourcePoint" />
            <mxPoint x="530" y="350" as="targetPoint" />
          </mxGeometry>
        </mxCell>
        <mxCell id="_KhrixYi-4tVYZZCShak-24" value="&lt;font style=&quot;font-size: 12px;&quot;&gt;ROUTING&lt;/font&gt;" style="rounded=0;whiteSpace=wrap;html=1;" vertex="1" parent="1">
          <mxGeometry x="380" y="90" width="90" height="50" as="geometry" />
        </mxCell>
        <mxCell id="_KhrixYi-4tVYZZCShak-25" value="" style="endArrow=none;dashed=1;html=1;dashPattern=1 3;strokeWidth=2;rounded=0;exitX=0.5;exitY=0;exitDx=0;exitDy=0;entryX=0.5;entryY=1;entryDx=0;entryDy=0;" edge="1" parent="1" source="_KhrixYi-4tVYZZCShak-1" target="_KhrixYi-4tVYZZCShak-24">
          <mxGeometry width="50" height="50" relative="1" as="geometry">
            <mxPoint x="480" y="280" as="sourcePoint" />
            <mxPoint x="530" y="230" as="targetPoint" />
          </mxGeometry>
        </mxCell>
        <mxCell id="_KhrixYi-4tVYZZCShak-26" value="Python" style="ellipse;whiteSpace=wrap;html=1;" vertex="1" parent="1">
          <mxGeometry x="390" y="-30" width="70" height="40" as="geometry" />
        </mxCell>
      </root>
    </mxGraphModel>
  </diagram>
</mxfile>
